<mxfile host="app.diagrams.net" modified="2023-07-10T02:17:22.685Z" agent="Mozilla/5.0 (Windows NT 10.0; Win64; x64) AppleWebKit/537.36 (KHTML, like Gecko) Chrome/114.0.0.0 Safari/537.36" version="21.6.1" etag="45MS-sEeZWK4ZB8WdMWN" type="github">
  <diagram name="페이지-1" id="n2jrs7YG3qwv69YpV19e">
    <mxGraphModel>
      <root>
        <mxCell id="0" />
        <mxCell id="1" parent="0" />
      </root>
    </mxGraphModel>
  </diagram>
</mxfile>
